<?xml version="1.0" encoding="utf-8"?>
<!-- Generator: Adobe Illustrator 24.3.0, SVG Export Plug-In . SVG Version: 6.00 Build 0)  -->
<svg version="1.1" id="Calque_1" xmlns="http://www.w3.org/2000/svg" xmlns:xlink="http://www.w3.org/1999/xlink" x="0px" y="0px"
	 viewBox="0 0 25.2 29.7" style="enable-background:new 0 0 25.2 29.7;" xml:space="preserve">
<style type="text/css">
	.st0{fill:#FFFFFF;}
</style>
<g transform="translate(0 0)">
	<path class="st0" d="M2.5,16.7c0,5.6,4.5,10.1,10.1,10.1s10.1-4.5,10.1-10.1c0-4.2-2.6-8-6.6-9.5v2.1c4.1,1.9,5.8,6.8,3.9,10.8
		C18,24.2,13.2,26,9.1,24C5,22.1,3.3,17.3,5.2,13.2c0.8-1.7,2.2-3.1,3.9-3.9V7.2C5.2,8.7,2.5,12.4,2.5,16.7z"/>
	<path class="st0" d="M12.6,3c-0.6,0-1.2,0.5-1.2,1.2v7.7c0,0.6,0.5,1.2,1.2,1.2s1.2-0.5,1.2-1.2V4.1C13.7,3.5,13.2,3,12.6,3z"/>
</g>
</svg>
