<?xml version="1.0" encoding="utf-8"?>
<!-- Generator: Adobe Illustrator 24.3.0, SVG Export Plug-In . SVG Version: 6.00 Build 0)  -->
<svg version="1.1" id="Calque_1" xmlns="http://www.w3.org/2000/svg" xmlns:xlink="http://www.w3.org/1999/xlink" x="0px" y="0px"
	 viewBox="0 0 35.8 31.3" style="enable-background:new 0 0 35.8 31.3;" xml:space="preserve">
<style type="text/css">
	.st0{fill:#FFFFFF;}
	.st1{fill:#FFFFFF;stroke:#000000;}
</style>
<g>
	<path class="st0" d="M12.3,12.3c2.8,0,5-2.3,5-5s-2.3-5-5-5c0,0,0,0,0,0c-2.8,0-5,2.3-5,5C7.3,10.1,9.5,12.3,12.3,12.3z"/>
	<path class="st0" d="M23.5,17.9c2.8,0,5-2.3,5-5s-2.3-5-5-5c0,0,0,0,0,0c-2.8,0-5,2.3-5,5C18.5,15.6,20.7,17.9,23.5,17.9z"/>
	<path class="st0" d="M23.5,20.1c-5.1,0-9.4,3.9-9.9,8.9h19.9C32.9,24,28.6,20.1,23.5,20.1z"/>
	<path class="st0" d="M19.2,18.7c-1.1-0.8-1.9-1.9-2.4-3.2c-1.3-0.8-2.9-1.1-4.4-0.9c-5.1,0-9.4,3.9-9.9,9h10.8
		C14.6,21.3,16.7,19.6,19.2,18.7z"/>
</g>
<path class="st1" d="M1.1,25.2"/>
<path class="st1" d="M1.1,25.2"/>
</svg>
