<svg xmlns="http://www.w3.org/2000/svg" width="35.794" height="31.32" viewBox="0 0 35.794 31.32"><path d="M30.3,22A7.259,7.259,0,0,0,25.97,35.091,12.326,12.326,0,0,0,18,46.608a1.118,1.118,0,0,0,1.119,1.119H30.025a12.262,12.262,0,0,0-.839,4.474A1.118,1.118,0,0,0,30.3,53.32H52.675A1.118,1.118,0,0,0,53.794,52.2a12.326,12.326,0,0,0-7.97-11.518,7.256,7.256,0,0,0-8.267-11.919A7.3,7.3,0,0,0,30.3,22Zm0,2.237a5.034,5.034,0,1,1-5.034,5.034A5.017,5.017,0,0,1,30.3,24.237ZM41.49,29.83a5.034,5.034,0,1,1-5.034,5.034A5.017,5.017,0,0,1,41.49,29.83ZM30.3,36.541a7.263,7.263,0,0,1,4.422.944,7.349,7.349,0,0,0,2.43,3.2,12.383,12.383,0,0,0-5.977,4.806H20.36A10,10,0,0,1,30.3,36.541ZM41.49,42.134a10,10,0,0,1,9.945,8.949H31.545A10,10,0,0,1,41.49,42.134Z" transform="translate(-18 -22)" fill="#fff"/><path d="M20,67" transform="translate(-18.881 -41.832)" fill="#fff" stroke="#000" stroke-width="1"/><path d="M20,67" transform="translate(-18.881 -41.832)" fill="#fff" stroke="#000" stroke-width="1"/></svg>