<?xml version="1.0" encoding="utf-8"?>
<!-- Generator: Adobe Illustrator 24.3.0, SVG Export Plug-In . SVG Version: 6.00 Build 0)  -->
<svg version="1.1" id="Calque_1" xmlns="http://www.w3.org/2000/svg" xmlns:xlink="http://www.w3.org/1999/xlink" x="0px" y="0px"
	 viewBox="0 0 60 75" style="enable-background:new 0 0 60 75;" xml:space="preserve">
<path d="M5.7,29.3l12.2,4.4l3.3,13.9c0,0,0,0.1,0,0.1c0,0,0,0.1,0.1,0.1c0,0.1,0.1,0.1,0.1,0.2c0,0,0,0.1,0,0.1c0,0,0,0,0,0
	c0.1,0.1,0.1,0.1,0.2,0.1c0,0,0.1,0,0.1,0c0.1,0,0.2,0.1,0.3,0.1c0,0,0,0,0,0c0.1,0,0.2,0,0.4-0.1c0,0,0.1,0,0.1,0
	c0.1,0,0.2-0.1,0.2-0.2c0,0,0,0,0,0l8.8-9.3l8,2.9c0.1,0,0.2,0.1,0.3,0.1c0.4,0,0.7-0.2,0.9-0.5l14-27.8c0-0.1,0.1-0.1,0.1-0.2
	c0-0.1,0-0.1,0-0.2c0,0,0,0,0,0c0-0.2,0-0.4-0.1-0.6c0,0,0-0.1-0.1-0.1c-0.1-0.2-0.4-0.3-0.6-0.4c0,0,0,0,0,0c0,0,0,0,0,0
	c0,0,0,0,0,0c0,0,0,0,0,0s0,0,0,0c0,0,0,0,0,0c0,0,0,0,0,0l0,0c0,0,0,0,0,0s0,0,0,0c0,0,0,0,0,0s0,0,0,0c0,0,0,0,0,0c0,0,0,0,0,0
	c0,0,0,0,0,0s0,0,0,0h0c0,0,0,0,0,0c-0.2,0-0.3,0-0.5,0l-48,15.6C5.3,27.5,5,27.9,5,28.3C5,28.7,5.3,29.1,5.7,29.3z M24.2,34.3
	c-0.1,0.1-0.1,0.1-0.2,0.2c0,0,0,0,0,0c-0.1,0.1-0.1,0.2-0.1,0.3c0,0,0,0,0,0l-1.7,7.9l-2.2-9.4l21.8-12.5L24.2,34.3z M23.8,44
	l1.7-7.6l4.1,1.5L23.8,44z M39.5,39.3l-7.8-2.8c0,0,0,0,0,0l-4.9-1.8l24.3-18.6L39.5,39.3z M45,16.7L18.6,31.8l-9.5-3.4L45,16.7z"/>
</svg>
